<?xml version="1.0" standalone="no"?>
<!DOCTYPE svg PUBLIC "-//W3C//DTD SVG 20010904//EN"
 "http://www.w3.org/TR/2001/REC-SVG-20010904/DTD/svg10.dtd">
<svg version="1.0" xmlns="http://www.w3.org/2000/svg"
 width="814.000000pt" height="814.000000pt" viewBox="0 0 814.000000 814.000000"
 preserveAspectRatio="xMidYMid meet">
<metadata>
Created by potrace 1.11, written by Peter Selinger 2001-2013
</metadata>
<g transform="translate(0.000000,814.000000) scale(0.100000,-0.100000)"
fill="#000000" stroke="none">
<path d="M3801 6530 c-102 -61 -186 -110 -187 -110 -1 0 -38 -22 -82 -49 -44
-27 -189 -113 -323 -191 -134 -79 -245 -147 -247 -152 -2 -4 -8 -8 -13 -8 -6
0 -88 -46 -182 -102 -95 -57 -181 -108 -192 -114 -11 -6 -50 -29 -88 -52 -37
-23 -69 -42 -71 -42 -2 0 -63 -36 -136 -80 -73 -44 -135 -80 -138 -80 -3 0
-19 -10 -36 -23 -17 -13 -46 -29 -63 -36 -18 -8 -33 -17 -33 -22 0 -4 -9 -11
-20 -14 -11 -4 -48 -24 -83 -45 -34 -22 -86 -52 -114 -67 -29 -15 -53 -31 -53
-35 0 -4 -4 -8 -10 -8 -5 0 -71 -37 -147 -81 -76 -45 -151 -89 -168 -99 -16
-9 -120 -70 -230 -135 -110 -65 -243 -142 -295 -173 -52 -30 -107 -63 -122
-73 -14 -11 -29 -19 -32 -19 -4 0 -25 -11 -47 -26 -22 -14 -55 -33 -72 -43
-96 -55 -293 -171 -302 -179 -5 -4 -17 -11 -25 -15 -8 -3 -37 -20 -65 -36 -27
-17 -68 -40 -90 -52 -59 -32 -116 -71 -111 -76 2 -3 306 -5 674 -5 l670 1 1
-1387 c0 -763 1 -1395 1 -1404 0 -17 70 -18 1325 -18 l1324 0 3 63 c2 34 1
154 -2 267 -3 113 -4 224 -2 247 l3 41 32 -9 c38 -11 95 -21 120 -21 16 1 17
-19 17 -286 l0 -287 1290 0 1290 0 0 60 c1 33 1 661 1 1395 1 734 4 1340 9
1345 5 6 243 10 679 9 369 0 671 1 671 2 0 1 -25 17 -56 36 -31 18 -68 40 -83
49 -164 99 -285 169 -292 169 -5 0 -9 4 -9 9 0 5 -8 11 -17 15 -10 3 -31 14
-48 24 -16 11 -46 28 -65 39 -102 59 -377 224 -387 233 -7 5 -14 10 -17 10 -3
0 -46 25 -96 55 -50 30 -93 55 -96 55 -3 0 -17 8 -32 19 -45 30 -81 51 -88 50
-4 0 -10 3 -13 8 -3 5 -55 38 -116 73 -60 36 -111 68 -113 72 -2 5 -8 8 -13 8
-7 0 -309 175 -379 220 -8 5 -44 26 -80 46 -36 21 -66 41 -68 46 -2 4 -12 8
-22 8 -10 0 -20 4 -22 8 -2 7 -128 83 -283 172 -53 30 -208 122 -270 160 -33
20 -67 40 -75 43 -8 4 -31 17 -51 30 -19 12 -82 49 -138 82 -56 33 -116 68
-131 77 -16 9 -134 79 -262 154 -128 75 -241 144 -250 152 -10 8 -18 12 -18 8
0 -4 -19 6 -43 21 -65 43 -81 53 -97 60 -8 4 -38 22 -67 40 -29 18 -55 33 -58
33 -3 0 -23 11 -43 25 -20 14 -41 25 -47 25 -7 0 -10 -116 -8 -362 4 -751 4
-820 -1 -825 -6 -7 -166 -6 -173 0 -2 3 -4 30 -3 61 1 66 1 70 -2 116 -1 20 1
43 5 53 3 9 3 17 -1 17 -4 0 -7 205 -7 455 0 251 -2 462 -5 470 -4 11 -53 -14
-189 -95z m318 -1914 c19 -4 42 -11 51 -16 17 -9 18 -57 19 -860 l1 -849 -25
9 c-44 17 -105 50 -129 71 l-23 20 -2 502 c-2 276 -4 639 -5 807 -1 168 2 310
6 316 8 11 49 11 107 0z"/>
</g>
</svg>
